<svg width="408.00000000000006" height="130" xmlns="http://www.w3.org/2000/svg">
 <defs>
  <linearGradient y2="1.109746" x2="1.084363" y1="0.037897" x1="0.07487" id="paint0_linear">
   <stop stop-color="#47D3FF"/>
   <stop stop-color="#2195EA" offset="1"/>
  </linearGradient>
 </defs>
 <g>
  <title>background</title>
  <rect fill="none" id="canvas_background" height="402" width="582" y="-1" x="-1"/>
 </g>
 <g>
  <title>Layer 1</title>
  <path id="svg_1" fill="black" d="m192.943,112.569l-28.604,-41.1794l27.441,-39.1147l-21.162,0l-24.883,34.8706l0,-34.8706l-18.605,0l0,80.2941l18.605,0l0,-37.1647l26.046,37.1647l21.162,0z"/>
  <path id="svg_2" fill="black" d="m237.886,55.2161l0,31.3147c0,8.1441 -4.418,11.8147 -10.814,11.8147c-5.581,0 -10.116,-3.3265 -10.116,-10.4382l0,-32.6912l-17.441,0l0,35.2147c0,15.4852 9.999,23.7442 21.743,23.7442c7.675,0 13.489,-2.753 16.628,-6.997l0,5.391l17.442,0l0,-57.3529l-17.442,0z"/>
  <path id="svg_3" fill="black" d="m305.452,53.6102c-7.674,0 -13.488,2.7529 -16.628,6.9971l0,-5.3912l-17.441,0l0,57.3529l17.441,0l0,-31.3147c0,-8.1441 4.419,-11.8147 10.814,-11.8147c5.581,0 10.116,3.3265 10.116,10.4383l0,32.6911l17.442,0l0,-35.2147c0,-15.4853 -10,-23.7441 -21.744,-23.7441z"/>
  <path id="svg_4" fill="black" d="m384.646,55.2161l0,5.3912c-3.837,-4.3589 -9.535,-6.9971 -17.326,-6.9971c-15.232,0 -27.79,13.1912 -27.79,30.2824c0,17.0914 12.558,30.2824 27.79,30.2824c7.791,0 13.489,-2.638 17.326,-6.997l0,5.391l17.441,0l0,-57.3529l-17.441,0zm-13.837,42.6706c-8.023,0 -13.837,-5.3912 -13.837,-13.9941c0,-8.603 5.814,-13.9942 13.837,-13.9942c8.023,0 13.837,5.3912 13.837,13.9942c0,8.6029 -5.814,13.9941 -13.837,13.9941z"/>
  <path id="svg_5" fill="#312A7D" d="m79.0322,130c12.57,0 19.9451,-13.909 12.7511,-24.047l-27.1238,-38.2261c-1.8732,-2.6399 -1.8648,-6.151 0.0209,-8.7823l24.9675,-34.8389c7.2611,-10.132 -0.1063,-24.1057 -12.7094,-24.1057l-61.389,0c-8.58776,0 -15.5495,6.84741 -15.5495,15.2941c0,0 0.00008,90.6179 0,99.4119c-0.00008,8.794 5.99992,15.294 15.4999,15.294c9.5,0 63.5323,0 63.5323,0z"/>
  <path id="svg_6" fill="url(#paint0_linear)" d="m0,114.706c-0.00007,8.289 5.3307,14.54 13.8986,15.231c25.2646,-35.2899 50.4828,-70.5752 75.7493,-105.8313c7.2611,-10.132 -0.1063,-24.1057 -12.7094,-24.1057l-61.389,0c-8.58776,0 -15.5495,6.84741 -15.5495,15.2941l0,99.4119z" clip-rule="evenodd" fill-rule="evenodd"/>
  <g stroke="null" transform="rotate(-170.2517852783203 322.99526977539057,50.176097869873054) " id="svg_89">
   <g stroke="null" transform="matrix(0.10244290866445122,-0.0064535785102179406,-0.004775374350389727,-0.10953038254964391,-6603.703345912809,2794.631786061821) " id="svg_14">
    <path stroke="null" id="svg_15" d="m68342.167271,21012.270721c0.318,-0.392 0.652,-0.783 0.99,-1.176c-0.338,0.393 -0.671,0.785 -0.99,1.176z" fill="#FFFFFF"/>
    <path stroke="null" id="svg_16" d="m68343.349271,21010.869721c0.362,-0.415 0.736,-0.829 1.117,-1.242c-0.38,0.413 -0.755,0.827 -1.117,1.242z" fill="#FFFFFF"/>
    <path stroke="null" id="svg_17" d="m68341.077271,21013.665721c0.276,-0.368 0.569,-0.738 0.866,-1.109c-0.297,0.37 -0.591,0.741 -0.866,1.109z" fill="#FFFFFF"/>
    <path stroke="null" id="svg_18" d="m68348.697271,21005.384721c0.451,-0.42 0.905,-0.833 1.36,-1.239c-0.455,0.406 -0.908,0.82 -1.36,1.239z" fill="#FFFFFF"/>
    <path stroke="null" id="svg_19" d="m68344.606271,21009.472721c0.396,-0.427 0.801,-0.852 1.213,-1.274c-0.412,0.423 -0.818,0.847 -1.213,1.274z" fill="#FFFFFF"/>
    <path stroke="null" id="svg_20" d="m68345.926271,21008.086721c0.422,-0.432 0.851,-0.859 1.285,-1.282c-0.433,0.422 -0.863,0.85 -1.285,1.282z" fill="#FFFFFF"/>
    <path stroke="null" id="svg_21" d="m68347.296271,21006.719721c0.441,-0.43 0.887,-0.854 1.336,-1.272c-0.449,0.419 -0.895,0.843 -1.336,1.272z" fill="#FFFFFF"/>
    <path stroke="null" id="svg_22" d="m68337.519271,21020.215721c0.062,-0.231 0.154,-0.473 0.236,-0.711c-0.082,0.238 -0.175,0.479 -0.236,0.711z" fill="#FFFFFF"/>
    <path stroke="null" id="svg_23" d="m68337.925271,21018.995721c0.098,-0.249 0.225,-0.507 0.342,-0.763c-0.117,0.256 -0.243,0.514 -0.342,0.763z" fill="#FFFFFF"/>
    <path stroke="null" id="svg_24" d="m68338.501271,21017.719721c0.139,-0.277 0.304,-0.562 0.463,-0.845c-0.159,0.284 -0.324,0.568 -0.463,0.845z" fill="#FFFFFF"/>
    <path stroke="null" id="svg_25" d="m68339.228271,21016.399721c0.183,-0.307 0.389,-0.619 0.592,-0.931c-0.204,0.312 -0.41,0.624 -0.592,0.931z" fill="#FFFFFF"/>
    <path stroke="null" id="svg_26" d="m68340.092271,21015.045721c0.229,-0.338 0.477,-0.679 0.727,-1.021c-0.25,0.342 -0.498,0.683 -0.727,1.021z" fill="#FFFFFF"/>
    <rect stroke="null" id="svg_27" height="4.266" width="0.001" fill="#FFFFFF" y="21052.585721" x="68418.346271"/>
    <path stroke="null" id="svg_28" d="m68350.119271,21004.089721c0.447,-0.399 0.894,-0.789 1.34,-1.171c-0.446,0.382 -0.892,0.772 -1.34,1.171z" fill="#FFFFFF"/>
    <path stroke="null" id="svg_29" d="m68340.636271,21025.367721l-0.003,0.002c-0.052,0.033 -11.331,7.367 -9.336,18.677c2.001,11.339 2.001,11.339 2.001,11.339l0.001,-0.001c-0.004,-0.021 -0.087,-0.491 -2.001,-11.338c-2,-11.336 9.338,-18.679 9.338,-18.679z" fill="#FFFFFF"/>
    <path stroke="null" id="svg_30" d="m68386.321271,21018.092721c-0.238,0.016 -0.476,0.025 -0.715,0.027c-0.152,0.002 -0.304,-0.005 -0.456,-0.009c-0.086,-0.003 -0.172,-0.001 -0.257,-0.006c-3.331,-0.168 -6.597,-1.812 -8.628,-6.571c-0.011,-0.026 -0.018,-0.062 -0.029,-0.088c-0.063,-0.16 -0.121,-0.332 -0.169,-0.52c-0.023,-0.091 -0.042,-0.19 -0.062,-0.287c-0.029,-0.142 -0.056,-0.285 -0.078,-0.439c-0.017,-0.119 -0.031,-0.241 -0.043,-0.368c-0.014,-0.148 -0.024,-0.304 -0.033,-0.462c-0.008,-0.145 -0.017,-0.286 -0.02,-0.438c-0.003,-0.152 0.001,-0.314 0.003,-0.475c0.005,-0.374 0.022,-0.771 0.053,-1.188c0.006,-0.09 0.01,-0.174 0.018,-0.266c0.022,-0.263 0.053,-0.54 0.085,-0.818c0.011,-0.1 0.022,-0.198 0.035,-0.3c0.038,-0.302 0.081,-0.612 0.128,-0.932c0.01,-0.062 0.02,-0.124 0.029,-0.187c0.499,-3.21 1.52,-7.267 3.011,-11.987c-0.632,0.09 -1.266,0.204 -1.903,0.361c0,0 -15.312,1.442 -22.646,7.166c-0.104,0.081 -0.21,0.169 -0.315,0.25c-4.224,18.94 -9.522,42.187 10.797,48.957c-4.56,-2.275 -1.662,-6.419 -1.984,-9.375c-0.279,-0.586 -0.564,-1.164 -0.801,-1.765c0.509,0.504 0.731,1.105 0.801,1.765c6.228,13.07 22.196,22.944 38.192,14.953c-5.569,-5.578 13.926,-8.359 0.002,-13.929c6.8,0 13.241,-2.071 18.891,-5.541c1.547,12.499 -2.31,18.741 -3.315,20.126c1.015,-1.394 4.923,-7.703 3.293,-20.375c-1.95,-15.114 -9.065,-32.403 -9.065,-32.403l-0.223,8.616c-0.001,0 -3.412,-4.957 -8.862,-9.809c-2.04,2.469 -3.314,4.993 -4.1,7.115c-1.856,5.031 -6.287,8.845 -11.634,9.202z" fill="#FFFFFF"/>
    <path stroke="null" id="svg_31" d="m68382.659271,21082.739721c0.04,0.027 4.199,2.862 10.876,2.731c-6.709,0.131 -10.878,-2.733 -10.878,-2.733l0.002,0.002z" fill="#FFFFFF"/>
    <path stroke="null" id="svg_32" d="m68338.634271,21048.717721c0,0 -0.001,0.001 -0.001,0.001c-0.008,0.023 -6.665,19.35 4.67,27.345c8.86,6.256 23.419,12.918 34.771,12.668c-11.351,0.25 -25.909,-6.412 -34.77,-12.668c-11.342,-8.001 -4.67,-27.346 -4.67,-27.346z" fill="#FFFFFF"/>
    <path stroke="null" id="svg_33" d="m68337.298271,21021.363721c0.027,-0.244 0.09,-0.502 0.146,-0.758c-0.056,0.255 -0.12,0.514 -0.146,0.758c-0.417,3.757 0.991,4.382 2.105,4.322c-1.114,0.059 -2.521,-0.566 -2.105,-4.322z" fill="#FFFFFF"/>
    <path stroke="null" id="svg_34" d="m68351.550271,21002.838721c0.43,-0.368 0.858,-0.726 1.284,-1.077c-0.426,0.351 -0.853,0.708 -1.284,1.077z" fill="#FFFFFF"/>
    <path stroke="null" id="svg_35" d="m68352.975271,21001.644721c0.4,-0.328 0.795,-0.644 1.187,-0.954c-0.393,0.31 -0.787,0.626 -1.187,0.954z" fill="#FFFFFF"/>
    <path stroke="null" id="svg_36" d="m68420.227271,21035.622721c-5.65,3.47 -12.091,5.541 -18.891,5.541c13.924,5.569 -5.571,8.351 -0.002,13.929c-15.996,7.991 -31.964,-1.883 -38.192,-14.953c0.322,2.956 -2.576,7.1 1.984,9.375c-20.319,-6.771 -15.021,-30.017 -10.797,-48.957c0,0 0,-0.001 0,-0.001c-0.055,0.043 -0.113,0.091 -0.168,0.136c-0.392,0.31 -0.787,0.625 -1.187,0.954c-0.047,0.039 -0.094,0.079 -0.141,0.117c-0.425,0.351 -0.854,0.708 -1.284,1.077c-0.03,0.026 -0.061,0.053 -0.091,0.079c-0.446,0.382 -0.893,0.772 -1.34,1.171c-0.021,0.019 -0.042,0.038 -0.063,0.057c-0.455,0.406 -0.909,0.819 -1.36,1.239c-0.022,0.021 -0.043,0.042 -0.065,0.063c-0.449,0.418 -0.895,0.843 -1.336,1.272c-0.029,0.027 -0.056,0.056 -0.084,0.084c-0.434,0.423 -0.863,0.851 -1.285,1.282c-0.037,0.037 -0.072,0.075 -0.108,0.112c-0.412,0.423 -0.817,0.848 -1.213,1.274c-0.047,0.051 -0.092,0.103 -0.14,0.154c-0.38,0.413 -0.755,0.827 -1.117,1.242c-0.066,0.075 -0.126,0.15 -0.192,0.226c-0.338,0.393 -0.672,0.784 -0.99,1.176c-0.078,0.096 -0.148,0.189 -0.224,0.285c-0.297,0.371 -0.59,0.741 -0.866,1.109c-0.09,0.121 -0.17,0.239 -0.258,0.359c-0.25,0.342 -0.498,0.683 -0.727,1.021c-0.097,0.143 -0.179,0.282 -0.272,0.424c-0.204,0.312 -0.41,0.624 -0.592,0.931c-0.096,0.161 -0.174,0.316 -0.264,0.476c-0.159,0.283 -0.324,0.567 -0.463,0.845c-0.088,0.174 -0.154,0.341 -0.233,0.513c-0.118,0.256 -0.244,0.514 -0.342,0.763c-0.069,0.174 -0.112,0.339 -0.17,0.509c-0.082,0.238 -0.175,0.479 -0.236,0.711c-0.036,0.134 -0.047,0.26 -0.075,0.391c-0.056,0.256 -0.118,0.514 -0.146,0.758c-0.416,3.756 0.991,4.381 2.105,4.322c0.661,-0.035 1.215,-0.31 1.229,-0.316l0.003,-0.002c0,0 -11.338,7.343 -9.339,18.679c1.914,10.847 1.997,11.317 2.001,11.338c0,0.001 0,0.001 0,0.001s2.667,-4.668 5.334,-6.667c0,0 0.001,-0.001 0.001,-0.001c0,0 -6.672,19.346 4.67,27.346c8.86,6.256 23.418,12.918 34.77,12.668c3.179,-0.069 6.106,-0.682 8.586,-1.996l-4.001,-3.995l-0.002,-0.002c0,0 4.169,2.864 10.878,2.733c4.027,-0.078 8.968,-1.235 14.472,-4.738c14.672,-9.34 12.008,-27.346 12.008,-27.346l-0.001,0.001l-3.336,2.663l0.002,-0.002c0.002,-0.003 0.087,-0.103 0.231,-0.301c1.009,-1.388 4.866,-7.63 3.319,-20.129z" fill="#EAE9D8"/>
    <path stroke="null" id="svg_37" d="m68363.142271,21040.138721c-0.07,-0.659 -0.292,-1.261 -0.801,-1.765c0.237,0.601 0.522,1.179 0.801,1.765z" fill="#EAE9D8"/>
    <path stroke="null" id="svg_38" d="m68819.237271,20999.193721c0.033,0.07 0.068,0.138 0.102,0.208c-0.034,-0.07 -0.069,-0.138 -0.102,-0.208z" fill="#EE2528"/>
    <path stroke="null" id="svg_39" d="m68818.329271,20997.426721c0.07,0.127 0.14,0.256 0.208,0.385c-0.068,-0.129 -0.137,-0.258 -0.208,-0.385z" fill="#EE2528"/>
    <path stroke="null" id="svg_40" d="m68812.734271,20989.693721c0.011,0.012 0.021,0.025 0.033,0.038c-0.012,-0.014 -0.023,-0.026 -0.033,-0.038z" fill="#EE2528"/>
    <path stroke="null" id="svg_41" d="m68815.232271,20992.713721c0.021,0.028 0.041,0.056 0.062,0.083c-0.021,-0.027 -0.042,-0.055 -0.062,-0.083z" fill="#EE2528"/>
    <path stroke="null" id="svg_42" d="m68820.032271,21001.018721c0.054,0.135 0.104,0.273 0.157,0.411c-0.052,-0.137 -0.103,-0.275 -0.157,-0.411z" fill="#EE2528"/>
    <path stroke="null" id="svg_43" d="m68816.267271,20994.133721c0.072,0.104 0.146,0.208 0.218,0.313c-0.073,-0.105 -0.146,-0.209 -0.218,-0.313z" fill="#EE2528"/>
    <path stroke="null" id="svg_44" d="m68820.688271,21002.837721c0.039,0.12 0.081,0.238 0.119,0.358c-0.038,-0.121 -0.08,-0.238 -0.119,-0.358z" fill="#EE2528"/>
    <path stroke="null" id="svg_45" d="m68822.081271,21009.358721c0.008,0.07 0.013,0.144 0.02,0.214c-0.007,-0.071 -0.012,-0.144 -0.02,-0.214z" fill="#EE2528"/>
    <path stroke="null" id="svg_46" d="m68500.625271,21068.062721c1.119,-13.396 -0.088,-26.848 -3.616,-39.811c-0.959,-3.535 -1.856,-7.398 -2.563,-11.49c-1.632,-9.406 -7.656,-17.074 -15.652,-21.103c7.996,4.029 14.018,11.697 15.65,21.102c0.707,4.092 1.604,7.956 2.563,11.49c3.528,12.963 4.735,26.415 3.616,39.811c-1.961,23.504 5.985,41.037 10.353,48.706l0,-0.001c-4.366,-7.67 -12.311,-25.202 -10.351,-48.704z" fill="#EE2528"/>
    <path stroke="null" id="svg_47" d="m68821.305271,21004.972721c0.03,0.123 0.057,0.25 0.086,0.375c-0.029,-0.125 -0.056,-0.252 -0.086,-0.375z" fill="#EE2528"/>
    <path stroke="null" id="svg_48" d="m68821.720271,21006.921721c0.027,0.146 0.056,0.293 0.081,0.441c-0.025,-0.148 -0.054,-0.295 -0.081,-0.441z" fill="#EE2528"/>
    <path stroke="null" id="svg_49" d="m68813.938271,20991.095721c0.047,0.057 0.095,0.113 0.142,0.17c-0.048,-0.056 -0.095,-0.113 -0.142,-0.17z" fill="#EE2528"/>
    <path stroke="null" id="svg_50" d="m68376.154271,21004.953721c-0.048,0.319 -0.091,0.63 -0.128,0.932c0.037,-0.302 0.079,-0.612 0.128,-0.932z" fill="#EE2528"/>
    <path stroke="null" id="svg_51" d="m68392.088271,20960.642721c4.131,2.876 8.742,5.313 13.888,7.209c38.993,11.14 86.343,-27.85 86.343,-77.98c13.925,38.99 -5.57,86.339 25.065,114.189c13.928,11.14 27.853,-8.351 44.568,-16.71c-19.499,19.499 -47.35,66.847 -22.285,66.847c86.342,0 181.042,-27.855 259.024,-77.987c0.12,-0.08 0.236,-0.174 0.352,-0.254c-5.165,-5.356 -10.284,-11.618 -14.277,-20.174c-9.646,-20.67 -45.885,-47.467 -82.145,-62.947l0,-0.007c-15.583,-26.181 -83.748,-52.209 -112.821,-57.735c-15.586,-2.964 -74.272,-5.57 -122.548,24.139c-38.354,23.602 -76.703,97.583 -88.059,133.547c-1.491,4.72 -2.512,8.777 -3.011,11.987c1.444,-9.231 7.232,-25.522 15.906,-44.124zm154.745,-95.934c19.569,-38.632 81.028,-5.556 81.028,-5.556c48.287,35.155 -100.6,44.187 -81.028,5.556z" fill="#EE2528"/>
    <path stroke="null" id="svg_52" d="m68375.990271,21006.184721c-0.032,0.278 -0.063,0.556 -0.085,0.818c0.023,-0.262 0.053,-0.538 0.085,-0.818z" fill="#EE2528"/>
    <path stroke="null" id="svg_53" d="m68384.893271,21018.104721c-3.33,-0.169 -6.595,-1.812 -8.626,-6.57c-0.012,-0.027 -0.02,-0.062 -0.031,-0.089c0.011,0.026 0.018,0.062 0.029,0.088c2.031,4.76 5.298,6.403 8.628,6.571z" fill="#EE2528"/>
    <path stroke="null" id="svg_54" d="m68375.888271,21007.268721c-0.031,0.418 -0.048,0.814 -0.053,1.188c0.005,-0.374 0.022,-0.769 0.053,-1.188z" fill="#EE2528"/>
    <path stroke="null" id="svg_55" d="m68375.852271,21009.369721c-0.008,-0.145 -0.017,-0.285 -0.02,-0.438c0.003,0.152 0.012,0.293 0.02,0.438z" fill="#EE2528"/>
    <path stroke="null" id="svg_56" d="m68376.006271,21010.638721c0.02,0.097 0.038,0.196 0.062,0.287c-0.024,-0.09 -0.042,-0.19 -0.062,-0.287z" fill="#EE2528"/>
    <path stroke="null" id="svg_57" d="m68375.884271,21009.831721c0.012,0.127 0.027,0.249 0.043,0.368c-0.016,-0.119 -0.03,-0.241 -0.043,-0.368z" fill="#EE2528"/>
    <path stroke="null" id="svg_58" d="m68385.606271,21018.119721c-0.152,0.001 -0.304,-0.005 -0.456,-0.009c0.152,0.004 0.304,0.011 0.456,0.009z" fill="#EE2528"/>
    <path stroke="null" id="svg_59" d="m68494.446271,21016.761721c0.707,4.092 1.604,7.955 2.563,11.49c3.528,12.963 4.735,26.415 3.616,39.811c-1.96,23.502 5.984,41.034 10.351,48.704c29.206,-33.45 257.394,-119.23 311.135,-107.078c-0.004,-0.039 -0.007,-0.078 -0.011,-0.116c-0.007,-0.07 -0.012,-0.144 -0.02,-0.214c-0.074,-0.682 -0.17,-1.346 -0.28,-1.996c-0.025,-0.148 -0.054,-0.295 -0.081,-0.441c-0.098,-0.534 -0.208,-1.06 -0.329,-1.573c-0.029,-0.125 -0.056,-0.252 -0.086,-0.375c-0.151,-0.605 -0.317,-1.198 -0.498,-1.777c-0.038,-0.121 -0.08,-0.238 -0.119,-0.358c-0.156,-0.478 -0.322,-0.947 -0.498,-1.408c-0.053,-0.137 -0.104,-0.275 -0.157,-0.411c-0.219,-0.549 -0.449,-1.089 -0.694,-1.617c-0.033,-0.07 -0.068,-0.138 -0.102,-0.208c-0.223,-0.469 -0.456,-0.929 -0.699,-1.382c-0.068,-0.128 -0.138,-0.257 -0.208,-0.385c-0.567,-1.026 -1.184,-2.018 -1.845,-2.981c-0.072,-0.104 -0.146,-0.208 -0.218,-0.313c-0.315,-0.45 -0.639,-0.896 -0.974,-1.336c-0.021,-0.027 -0.041,-0.056 -0.062,-0.083c-0.373,-0.489 -0.759,-0.97 -1.152,-1.448c-0.047,-0.057 -0.095,-0.113 -0.142,-0.17c-0.382,-0.458 -0.771,-0.914 -1.171,-1.365c-0.012,-0.013 -0.022,-0.025 -0.033,-0.038c-4.021,-4.537 -8.872,-8.744 -13.688,-13.739c-0.001,0 -0.002,0.001 -0.003,0.002c-0.115,0.081 -0.231,0.175 -0.352,0.254c-77.982,50.131 -172.683,77.987 -259.024,77.987c-25.065,0 2.786,-47.349 22.285,-66.847c-16.715,8.359 -30.64,27.85 -44.568,16.71c-30.635,-27.85 -11.14,-75.199 -25.065,-114.189c0,50.13 -47.35,89.12 -86.343,77.98c-5.146,-1.896 -9.757,-4.333 -13.888,-7.209c-8.674,18.602 -14.462,34.893 -15.905,44.125c-0.01,0.063 -0.02,0.125 -0.029,0.187c-0.048,0.32 -0.091,0.63 -0.128,0.932c-0.013,0.102 -0.023,0.2 -0.035,0.3c-0.032,0.279 -0.063,0.556 -0.085,0.818c-0.008,0.092 -0.011,0.176 -0.018,0.266c-0.031,0.419 -0.048,0.813 -0.053,1.188c-0.002,0.16 -0.006,0.322 -0.003,0.475c0.002,0.152 0.012,0.293 0.02,0.438c0.008,0.158 0.019,0.313 0.033,0.462c0.012,0.127 0.027,0.249 0.043,0.368c0.021,0.154 0.048,0.298 0.078,0.439c0.02,0.097 0.038,0.196 0.062,0.287c0.048,0.188 0.105,0.359 0.169,0.52c0.011,0.027 0.019,0.062 0.031,0.089c2.031,4.759 5.297,6.401 8.626,6.57c0.085,0.005 0.171,0.003 0.257,0.006c0.152,0.004 0.304,0.01 0.456,0.009c0.239,-0.002 0.477,-0.012 0.715,-0.027c5.347,-0.356 9.778,-4.171 11.634,-9.199c0.786,-2.122 2.06,-4.646 4.1,-7.115c5.641,-6.829 17.185,-13.235 40.812,-9.536c7.246,1.134 13.932,1.156 19.927,0.505c5.695,-0.612 11.202,0.495 16,2.913c7.997,4.025 14.021,11.693 15.653,21.099z" fill="#DE1F27"/>
    <path stroke="null" id="svg_60" d="m68532.425271,21193.117721c-0.166,-0.231 -0.337,-0.472 -0.516,-0.725c0.18,0.253 0.351,0.493 0.516,0.725z" fill="#FFFFFF"/>
    <path stroke="null" id="svg_61" d="m68534.728271,21196.239721c-0.049,-0.063 -0.107,-0.14 -0.175,-0.229c0.068,0.09 0.125,0.166 0.175,0.229z" fill="#FFFFFF"/>
    <path stroke="null" id="svg_62" d="m68524.670271,21181.356721c-0.901,-1.481 -1.824,-3.046 -2.753,-4.68c0.928,1.634 1.851,3.198 2.753,4.68z" fill="#FFFFFF"/>
    <path stroke="null" id="svg_63" d="m68534.232271,21195.585721c-0.083,-0.111 -0.176,-0.234 -0.273,-0.365c0.098,0.131 0.189,0.252 0.273,0.365z" fill="#FFFFFF"/>
    <path stroke="null" id="svg_64" d="m68534.538271,21195.992721c-0.076,-0.101 -0.165,-0.219 -0.263,-0.349c0.099,0.13 0.187,0.248 0.263,0.349z" fill="#FFFFFF"/>
    <path stroke="null" id="svg_65" d="m68532.972271,21193.876721c-0.142,-0.195 -0.291,-0.402 -0.446,-0.618c0.155,0.215 0.304,0.422 0.446,0.618z" fill="#FFFFFF"/>
    <path stroke="null" id="svg_66" d="m68533.873271,21195.104721c-0.244,-0.329 -0.526,-0.711 -0.844,-1.149c0.319,0.438 0.6,0.82 0.844,1.149z" fill="#FFFFFF"/>
    <path stroke="null" id="svg_67" d="m68530.501271,21190.372721c-0.214,-0.311 -0.434,-0.632 -0.658,-0.964c0.225,0.332 0.444,0.652 0.658,0.964z" fill="#FFFFFF"/>
    <path stroke="null" id="svg_68" d="m68525.607271,21182.882721c-0.286,-0.46 -0.575,-0.931 -0.867,-1.409c0.292,0.478 0.581,0.948 0.867,1.409z" fill="#FFFFFF"/>
    <path stroke="null" id="svg_69" d="m68518.085271,21169.559721c-0.62,-1.223 -1.231,-2.47 -1.831,-3.737c0.6,1.268 1.212,2.515 1.831,3.737z" fill="#FFFFFF"/>
    <path stroke="null" id="svg_70" d="m68518.997271,21171.329721c-0.305,-0.582 -0.608,-1.17 -0.909,-1.765c0.301,0.595 0.605,1.183 0.909,1.765z" fill="#FFFFFF"/>
    <path stroke="null" id="svg_71" d="m68534.862271,21196.414721c-0.021,-0.028 -0.055,-0.071 -0.09,-0.118c0.037,0.049 0.068,0.088 0.09,0.118z" fill="#FFFFFF"/>
    <path stroke="null" id="svg_72" d="m68521.849271,21176.558721c-0.932,-1.643 -1.87,-3.354 -2.796,-5.124c0.926,1.771 1.863,3.482 2.796,5.124z" fill="#FFFFFF"/>
    <path stroke="null" id="svg_73" d="m68531.871271,21192.338721c-0.401,-0.567 -0.835,-1.188 -1.295,-1.857c0.46,0.668 0.893,1.289 1.295,1.857z" fill="#FFFFFF"/>
    <path stroke="null" id="svg_74" d="m68529.789271,21189.330721c-0.492,-0.728 -1.01,-1.502 -1.547,-2.321c0.538,0.819 1.055,1.593 1.547,2.321z" fill="#FFFFFF"/>
    <path stroke="null" id="svg_75" d="m68527.354271,21185.642721c-0.563,-0.873 -1.143,-1.789 -1.736,-2.744c0.593,0.955 1.173,1.871 1.736,2.744z" fill="#FFFFFF"/>
    <path stroke="null" id="svg_76" d="m68528.185271,21186.921721c-0.252,-0.384 -0.507,-0.776 -0.767,-1.179c0.259,0.402 0.515,0.795 0.767,1.179z" fill="#FFFFFF"/>
    <path stroke="null" id="svg_77" d="m68534.913271,21196.479721c0,0 -0.016,-0.021 -0.037,-0.048c0.022,0.03 0.037,0.048 0.037,0.048z" fill="#FFFFFF"/>
    <path stroke="null" id="svg_78" d="m68515.341271,21163.852721c-0.871,-1.919 -1.708,-3.878 -2.493,-5.866c0.786,1.988 1.622,3.947 2.493,5.866z" fill="#FFFFFF"/>
    <path stroke="null" id="svg_79" d="m68598.222271,21127.415721c20.147,-20.145 63.314,-8.638 92.088,-23.021c-2.876,0 -8.633,0 -11.51,0c31.653,-25.903 74.823,-8.637 106.479,-31.655c-2.882,0 -8.638,0 -11.515,0c20.144,-11.514 48.923,2.876 57.556,-17.267c8.18,-14.317 3.269,-30.076 -4.384,-44.202c1.328,0.607 2.491,1.311 3.425,2.131c30.628,27.024 31.226,59.417 25.227,70.417c6,-11.001 5.401,-43.393 -25.225,-70.417c-1.919,-1.693 -4.712,-2.913 -8.252,-3.713c-53.741,-12.152 -281.929,73.628 -311.135,107.078l0,0.001c-1.561,1.788 -2.558,3.428 -2.925,4.894c-2.804,11.218 0.033,24.23 4.759,36.228c-0.259,-0.657 -0.512,-1.317 -0.759,-1.98c29.918,6.616 63.982,-2.606 86.171,-28.494z" fill="#FFFFFF"/>
    <path stroke="null" id="svg_80" d="m68853.187271,21086.486721c-0.272,0.132 -0.584,0.264 -0.934,0.396c0.35,-0.132 0.661,-0.264 0.934,-0.396z" fill="#FFFFFF"/>
    <path stroke="null" id="svg_81" d="m68516.228271,21165.765721c-0.291,-0.616 -0.579,-1.236 -0.863,-1.861c0.284,0.625 0.572,1.245 0.863,1.861z" fill="#FFFFFF"/>
    <path stroke="null" id="svg_82" d="m68848.920271,21087.878721c-0.807,0.202 -1.694,0.406 -2.661,0.613c0.967,-0.207 1.854,-0.411 2.661,-0.613z" fill="#FFFFFF"/>
    <path stroke="null" id="svg_83" d="m68846.259271,21088.491721c-36.12,7.75 -183.04,20.392 -304.846,103.47c121.806,-83.077 268.726,-95.72 304.846,-103.47z" fill="#FFFFFF"/>
    <path stroke="null" id="svg_84" d="m68850.421271,21087.476721c-0.463,0.133 -0.964,0.267 -1.501,0.401c0.537,-0.134 1.038,-0.268 1.501,-0.401z" fill="#FFFFFF"/>
    <path stroke="null" id="svg_85" d="m68852.253271,21086.882721c-0.525,0.198 -1.137,0.396 -1.832,0.595c0.695,-0.2 1.307,-0.397 1.832,-0.595z" fill="#FFFFFF"/>
    <path stroke="null" id="svg_86" d="m68830.362271,21013.401721c-0.934,-0.82 -2.097,-1.523 -3.425,-2.131c7.652,14.126 12.563,29.885 4.384,44.202c-8.633,20.143 -37.412,5.753 -57.556,17.267c2.877,0 8.633,0 11.515,0c-31.656,23.019 -74.826,5.752 -106.479,31.655c2.877,0 8.634,0 11.51,0c-28.773,14.383 -71.94,2.876 -92.088,23.021c-22.189,25.889 -56.253,35.11 -86.171,28.493c0.247,0.663 0.5,1.323 0.759,1.98c0.013,0.033 0.026,0.065 0.039,0.098c0.785,1.988 1.622,3.947 2.493,5.866c0.008,0.018 0.016,0.034 0.023,0.052c0.284,0.625 0.572,1.245 0.863,1.861c0.009,0.019 0.018,0.038 0.027,0.057c0.599,1.268 1.211,2.515 1.831,3.737c0.001,0.002 0.002,0.003 0.003,0.005c0.301,0.595 0.604,1.183 0.909,1.765c0.018,0.035 0.037,0.07 0.055,0.105c0.926,1.77 1.864,3.481 2.796,5.124c0.022,0.039 0.045,0.078 0.067,0.118c0.929,1.634 1.853,3.198 2.753,4.68c0.024,0.039 0.047,0.077 0.071,0.116c0.292,0.479 0.581,0.949 0.867,1.409c0.003,0.006 0.007,0.012 0.01,0.017c0.593,0.955 1.173,1.871 1.736,2.744c0.021,0.033 0.042,0.066 0.064,0.1c0.26,0.402 0.515,0.795 0.767,1.179c0.019,0.029 0.039,0.059 0.058,0.088c0.537,0.819 1.055,1.594 1.547,2.321c0.018,0.026 0.036,0.052 0.054,0.078c0.225,0.332 0.444,0.653 0.658,0.964c0.024,0.036 0.049,0.072 0.074,0.108c0.46,0.669 0.894,1.29 1.295,1.857c0.013,0.019 0.026,0.036 0.039,0.055c0.179,0.253 0.35,0.493 0.516,0.725c0.034,0.048 0.067,0.094 0.101,0.141c0.155,0.216 0.304,0.423 0.446,0.618c0.019,0.026 0.039,0.054 0.057,0.079c0.318,0.438 0.6,0.82 0.844,1.149c0.029,0.04 0.057,0.077 0.085,0.115c0.097,0.131 0.189,0.254 0.273,0.365c0.015,0.02 0.03,0.04 0.044,0.059c0.098,0.13 0.187,0.248 0.263,0.349c0.006,0.007 0.009,0.012 0.015,0.019c0.068,0.089 0.125,0.165 0.175,0.229c0.017,0.022 0.029,0.038 0.043,0.057c0.036,0.047 0.069,0.09 0.09,0.118c0.006,0.008 0.009,0.012 0.014,0.018c0.021,0.027 0.037,0.048 0.037,0.048c2.158,-1.528 4.325,-3.035 6.5,-4.519c121.806,-83.078 268.726,-95.72 304.846,-103.47c0.967,-0.207 1.854,-0.411 2.661,-0.613c0.537,-0.135 1.038,-0.269 1.501,-0.401c0.695,-0.199 1.307,-0.396 1.832,-0.595c0.35,-0.132 0.661,-0.264 0.934,-0.396c0.545,-0.265 0.933,-0.53 1.157,-0.8c0.438,-0.526 0.855,-1.154 1.244,-1.868c5.999,-11.001 5.401,-43.393 -25.226,-70.418z" fill="#EAE9D8"/>
    <path stroke="null" id="svg_87" d="m68627.862271,20859.152721c0,0 -61.459,-33.076 -81.028,5.556c-19.573,38.631 129.314,29.599 81.028,-5.556z" fill="#EE2528"/>
    <path stroke="null" id="svg_88" d="m68627.862271,20859.152721c0,0 -61.459,-33.076 -81.028,5.556c-19.573,38.631 129.314,29.599 81.028,-5.556z" fill="#FFFFFF" opacity="0.2"/>
   </g>
  </g>
 </g>
</svg>